PathFileType	4	(X/Y/Z)	markers
DataRate	CameraRate	NumFrames	NumMarkers	Units	OrigDataRate	OrigDataStartFrame	OrigNumFrames
200	200	4	49	mm	200	137	219
Frame#	Time	RASI			LASI			RPSI			LPSI			RTH1			RTH2			RTH3			RTH4			RLFC			RMFC			RTB1			RTB2			RTB3			RTB4			RLMAL			RMMAL			RCAL			RTOE			RMT5			LTH1			LTH2			LTH3			LTH4			LLFC			LMFC			LTB1			LTB2			LTB3			LTB4			LLMAL			LMMAL			LCAL			LTOE			LMT5			C7			T10			CLAV			RACR			LACR			RLEL			RFAradius			LLEL			LFAradius			RHJC			LHJC			RKJC			LKJC			RAJC			LAJC		
		X1	Y1	Z1	X2	Y2	Z2	X3	Y3	Z3	X4	Y4	Z4	X5	Y5	Z5	X6	Y6	Z6	X7	Y7	Z7	X8	Y8	Z8	X9	Y9	Z9	X10	Y10	Z10	X11	Y11	Z11	X12	Y12	Z12	X13	Y13	Z13	X14	Y14	Z14	X15	Y15	Z15	X16	Y16	Z16	X17	Y17	Z17	X18	Y18	Z18	X19	Y19	Z19	X20	Y20	Z20	X21	Y21	Z21	X22	Y22	Z22	X23	Y23	Z23	X24	Y24	Z24	X25	Y25	Z25	X26	Y26	Z26	X27	Y27	Z27	X28	Y28	Z28	X29	Y29	Z29	X30	Y30	Z30	X31	Y31	Z31	X32	Y32	Z32	X33	Y33	Z33	X34	Y34	Z34	X35	Y35	Z35	X36	Y36	Z36	X37	Y37	Z37	X38	Y38	Z38	X39	Y39	Z39	X40	Y40	Z40	X41	Y41	Z41	X42	Y42	Z42	X43	Y43	Z43	X44	Y44	Z44	X45	Y45	Z45	X46	Y46	Z46	X47	Y47	Z47	X48	Y48	Z48	X49	Y49	Z49
137	0.680000	696.970238	1021.784095	-1485.019153	699.977686	1025.094220	-1722.898676	534.137490	1060.425921	-1558.712073	532.940142	1060.051098	-1648.878463	636.316095	772.547304	-1416.406002	692.211352	758.767744	-1447.540913	672.458743	659.602026	-1445.749298	629.286835	665.597061	-1420.520670	593.945584	548.984145	-1424.709103	589.604886	512.098998	-1539.721397	555.523392	429.792224	-1388.269876	600.008484	425.169661	-1410.331011	595.848866	317.906519	-1414.833782	538.832887	328.070630	-1385.050098	525.563452	128.938582	-1396.614717	548.840514	131.020456	-1495.739539	459.323869	90.209171	-1449.736654	678.426709	65.773085	-1467.695770	645.353920	58.412867	-1374.188045	668.068218	771.381687	-1791.966571	701.216758	770.571209	-1755.011139	692.122932	668.626267	-1743.192719	649.278193	665.945459	-1791.669434	597.360004	532.198270	-1800.801602	567.080524	517.206792	-1678.222686	581.155793	441.771635	-1831.460154	618.847474	434.755568	-1802.109019	604.974310	334.167519	-1795.200185	554.582014	337.440340	-1835.761844	539.852137	124.525367	-1807.591511	533.199523	127.470253	-1709.909197	452.890109	87.187381	-1766.578255	670.369169	69.608870	-1723.209245	644.018220	57.996738	-1819.522198	533.038911	1559.732512	-1613.546220	490.839627	1347.512336	-1609.180092	646.863245	1501.625011	-1586.445023	544.815482	1564.868844	-1482.282943	537.915152	1560.791710	-1738.063925	550.550248	1501.549603	-1168.262164	613.112107	1557.723170	-915.183446	581.780315	1482.079429	-2053.394283	677.790396	1540.842797	-2294.440239	630.230935	952.949679	-1519.973283	632.400403	955.337487	-1691.571189	591.775235	530.541572	-1482.215250	582.220264	524.702531	-1739.512144	537.201983	129.979519	-1446.177128	536.525830	125.997810	-1758.750354
138	0.685000	697.068795	1021.815021	-1484.990887	699.996759	1025.171123	-1722.853854	534.137490	1060.425921	-1558.712073	532.996409	1060.020251	-1648.870235	636.316335	772.539695	-1416.440768	692.139020	758.719265	-1447.532239	672.525937	659.585102	-1445.736084	629.341089	665.700615	-1420.459049	593.974822	549.009737	-1424.739498	589.557171	512.124704	-1539.708171	555.563101	429.808014	-1388.282850	600.017014	425.186507	-1410.394647	595.705742	317.855659	-1414.893499	538.857689	328.130712	-1385.058473	525.589729	128.902255	-1396.648650	548.794866	131.005409	-1495.721653	459.315020	90.262809	-1449.737634	678.475651	65.832401	-1467.721889	645.343382	58.428098	-1374.193016	668.088529	771.409899	-1791.966946	701.237175	770.575177	-1754.975826	692.035281	668.530008	-1743.153006	649.246078	665.954791	-1791.645433	597.359714	532.199639	-1800.777529	567.103515	517.193231	-1678.210386	581.064511	441.743241	-1831.422743	618.866231	434.759020	-1802.071180	605.046760	334.178556	-1795.209429	554.474559	337.179662	-1835.760605	539.894081	124.514261	-1807.639560	533.209558	127.465743	-1709.907595	452.881521	87.177266	-1766.549424	670.361454	69.632341	-1723.271746	644.018374	58.007215	-1819.514158	533.075627	1559.824633	-1613.650278	490.801717	1347.487914	-1609.165816	646.936007	1501.614955	-1586.457525	544.905797	1564.851456	-1482.256481	537.954993	1560.836597	-1738.062365	550.610277	1501.536901	-1168.319384	613.129171	1557.721132	-915.238641	581.745971	1482.085787	-2053.376441	677.725170	1540.837268	-2294.472914	630.346563	952.962926	-1519.933265	632.458705	955.383914	-1691.520264	591.765997	530.567221	-1482.223835	582.231615	524.696435	-1739.493958	537.192298	129.953832	-1446.185152	536.551819	125.990002	-1758.773578
139	0.690000	697.076952	1021.788677	-1485.037349	700.084678	1025.139781	-1722.915613	534.359149	1060.366717	-1558.652156	533.130738	1060.033326	-1648.862388	636.590511	772.354277	-1416.448416	692.218748	758.743449	-1447.576352	672.529598	659.526375	-1445.785908	629.286816	665.597095	-1420.520670	593.991832	548.989749	-1424.696801	589.565158	512.128489	-1539.726094	555.574378	429.838453	-1388.310392	599.971623	425.186595	-1410.381089	595.838759	317.961545	-1414.810686	538.838591	328.091480	-1385.040723	525.556521	128.916782	-1396.692989	548.857136	131.020371	-1495.776896	459.341242	90.296951	-1449.751544	678.470792	65.850033	-1467.720844	645.275955	58.408039	-1374.152085	668.142495	771.412815	-1792.002487	701.257593	770.579146	-1754.940514	692.229330	668.644791	-1743.207628	649.209481	665.968574	-1791.674025	597.319456	532.182244	-1800.754590	567.056424	517.236154	-1678.272320	581.143732	441.791891	-1831.460802	618.878366	434.739016	-1802.070554	605.135447	334.027359	-1795.240843	554.461988	337.200018	-1835.761278	539.919172	124.565597	-1807.609884	533.203936	127.493845	-1709.923561	452.816535	87.110062	-1766.570751	670.402423	69.655971	-1723.228871	644.032013	58.015980	-1819.517746	533.075630	1559.824646	-1613.650278	490.890435	1347.424754	-1609.151206	646.952496	1501.577709	-1586.455222	544.857352	1564.856299	-1482.286405	537.985569	1560.825698	-1738.086727	550.614329	1501.562804	-1168.309378	613.178060	1557.715375	-915.195604	581.717110	1482.116651	-2053.384696	677.706880	1540.860566	-2294.477370	630.379896	952.938966	-1520.003071	632.549564	955.356335	-1691.600110	591.778495	530.559119	-1482.211448	582.187940	524.709199	-1739.513455	537.206829	129.968576	-1446.234943	536.561554	126.029721	-1758.766722
140	0.695000	697.001986	1021.755300	-1484.964106	700.014054	1025.118918	-1722.892873	534.180251	1060.344929	-1558.740954	533.121200	1060.020236	-1648.859504	636.437273	772.567206	-1416.417884	692.204872	758.719989	-1447.537365	672.516582	659.499862	-1445.809561	629.311082	665.683282	-1420.492093	593.982942	548.961323	-1424.695619	589.587525	512.111488	-1539.748289	555.626175	429.893547	-1388.286029	599.991429	425.110596	-1410.310703	595.959992	317.993944	-1414.854410	538.843279	328.118827	-1385.090464	525.577102	128.919835	-1396.698943	548.819346	131.025394	-1495.778574	459.336946	90.255588	-1449.766501	678.462270	65.854383	-1467.714630	645.344201	58.428106	-1374.182081	668.058340	771.358135	-1792.001748	701.204492	770.532659	-1754.938858	692.090652	668.576998	-1743.125873	649.233803	665.982323	-1791.664519	597.361010	532.192522	-1800.757348	567.096745	517.229871	-1678.230519	581.112279	441.772227	-1831.460612	618.878364	434.739018	-1802.070554	605.136280	334.077569	-1795.239176	554.649124	337.474425	-1835.761362	539.903304	124.546854	-1807.607129	533.201282	127.508542	-1709.908693	452.877985	87.188947	-1766.582756	670.384603	69.644138	-1723.254708	644.065296	58.036774	-1819.509378	533.102285	1559.743206	-1613.683709	490.892800	1347.779357	-1609.278056	647.048326	1501.639328	-1586.477228	544.915936	1564.855102	-1482.304372	538.075156	1560.814398	-1738.092069	550.615702	1501.565775	-1168.327528	613.198039	1557.737141	-915.208082	581.743236	1482.090340	-2053.374039	677.685158	1540.853045	-2294.503142	630.295547	952.895106	-1519.943203	632.468308	955.321458	-1691.573560	591.785233	530.536405	-1482.221954	582.228878	524.711197	-1739.493933	537.198224	129.972614	-1446.238758	536.552293	126.027698	-1758.757911
